<svg width="32" height="32" viewBox="0 0 32 32" fill="none" xmlns="http://www.w3.org/2000/svg">
<g clip-path="url(#clip0_51_71)">
<path d="M4.33499 26.4963C4.21061 26.4965 4.08775 26.4691 3.97533 26.4159C3.86291 26.3626 3.76377 26.285 3.68512 26.1887C3.19822 25.5996 2.7543 24.9762 2.35681 24.3234C2.29907 24.2287 2.26057 24.1235 2.24348 24.0139C2.22639 23.9043 2.23106 23.7924 2.25722 23.6846C2.28338 23.5768 2.33051 23.4752 2.39594 23.3856C2.46136 23.296 2.54379 23.2202 2.63851 23.1625C2.73324 23.1047 2.8384 23.0662 2.94801 23.0491C3.05762 23.0321 3.16952 23.0367 3.27732 23.0629C3.38512 23.089 3.48672 23.1362 3.57631 23.2016C3.66589 23.267 3.74172 23.3494 3.79945 23.4442C4.15448 24.0288 4.55187 24.5867 4.98843 25.1133C5.13064 25.2862 5.19884 25.5082 5.17816 25.7311C5.15749 25.9539 5.04962 26.1596 4.87803 26.3034C4.72387 26.4269 4.53255 26.4949 4.33499 26.4963Z" fill="#038251"/>
<path d="M15.997 32C12.6968 32.0073 9.47652 30.9854 6.78449 29.0765C6.60303 28.9471 6.48016 28.7511 6.4427 28.5314C6.40523 28.3117 6.45623 28.0861 6.58456 27.9039C6.71288 27.7217 6.90809 27.5977 7.12756 27.5589C7.34703 27.5201 7.57292 27.5698 7.7559 27.697C10.1648 29.4029 13.0452 30.316 15.997 30.3094C23.8807 30.3094 30.2972 23.8872 30.2972 15.9962C30.2972 8.10529 23.8807 1.68379 15.997 1.68379C8.11316 1.68379 1.70024 8.10887 1.70024 15.9998C1.69878 17.3618 1.89235 18.7169 2.27508 20.024C2.33809 20.239 2.31311 20.4703 2.20564 20.6668C2.09818 20.8634 1.91702 21.0093 1.70202 21.0723C1.59557 21.1035 1.48401 21.1134 1.37372 21.1015C1.26343 21.0896 1.15657 21.056 1.05923 21.0028C0.862651 20.8954 0.716815 20.7142 0.653805 20.4992C0.228416 19.0373 0.0132093 17.5223 0.0146557 15.9998C0.0146557 7.17533 7.18463 0 16.0005 0C24.8164 0 31.986 7.17605 31.986 15.9998C31.986 24.8236 24.8128 32 15.997 32Z" fill="#038251"/>
<path d="M12.0614 13.9986H18.5565V15.6584H12.0614V13.9986ZM12.0614 11.2323H18.5565V12.8921H12.0614V11.2323ZM12.0614 16.7649H15.777V18.4244H12.0614V16.7649ZM23.6011 19.4086C23.0352 18.4651 23.0445 18.4472 23.0445 18.4472C23.0445 18.4472 21.0913 18.9953 20.7276 17.1218H19.5954C19.5954 17.1218 19.2835 18.9982 17.2878 18.4437C16.7109 19.4061 16.6916 19.4362 16.6908 19.4369C16.6901 19.4376 18.2528 20.529 16.6908 22.0117L17.2982 23.0095C17.2982 23.0095 19.0227 22.2646 19.5876 24.2989H20.7326C20.7326 24.2989 21.0899 22.4297 23.0312 22.9824C23.5836 22.0388 23.5925 22.0296 23.5925 22.0296C23.5925 22.0296 22.1277 20.7663 23.6014 19.4097L23.6011 19.4086ZM20.1356 22.031C19.8742 22.031 19.6186 21.9535 19.4012 21.8082C19.1838 21.663 19.0144 21.4565 18.9143 21.215C18.8143 20.9734 18.7881 20.7076 18.8391 20.4512C18.8901 20.1948 19.016 19.9593 19.2009 19.7744C19.3858 19.5895 19.6213 19.4636 19.8777 19.4126C20.1341 19.3616 20.3999 19.3878 20.6415 19.4878C20.883 19.5879 21.0895 19.7573 21.2347 19.9747C21.38 20.1921 21.4575 20.4477 21.4575 20.7091C21.4575 21.0597 21.3182 21.3959 21.0703 21.6438C20.8224 21.8917 20.4862 22.031 20.1356 22.031ZM10.8813 22.6469C10.5876 22.6469 10.3059 22.5302 10.0982 22.3225C9.8905 22.1148 9.77382 21.8331 9.77382 21.5394V10.4602C9.77382 10.1665 9.8905 9.88477 10.0982 9.67707C10.3059 9.46937 10.5876 9.35268 10.8813 9.35268H19.7365C20.0303 9.35268 20.312 9.46937 20.5197 9.67707C20.7274 9.88477 20.8441 10.1665 20.8441 10.4602V16.3454H22.2203V9.08402C22.2203 8.90245 22.1847 8.72264 22.1153 8.55486C22.0459 8.38707 21.9441 8.2346 21.8158 8.10615C21.6875 7.97769 21.5351 7.87577 21.3674 7.8062C21.1997 7.73663 21.0199 7.70078 20.8383 7.70068H9.78096C9.41433 7.70097 9.06282 7.84686 8.80374 8.10628C8.54466 8.36569 8.39922 8.71739 8.39941 9.08402V22.9156C8.39932 23.0971 8.43498 23.2769 8.50436 23.4446C8.57374 23.6123 8.67548 23.7648 8.80376 23.8932C8.93205 24.0216 9.08438 24.1235 9.25205 24.1931C9.41972 24.2626 9.59944 24.2985 9.78096 24.2985H16.1382V22.6469H10.8813Z" fill="#038251"/>
</g>
<defs>
<clipPath id="clip0_51_71">
<rect width="32" height="32" fill="white"/>
</clipPath>
</defs>
</svg>
