<svg width="32" height="32" viewBox="0 0 32 32" fill="none" xmlns="http://www.w3.org/2000/svg">
<g clip-path="url(#clip0_51_16)">
<path d="M21.3333 17.3332H17.3333C16.6 17.3332 16 17.9332 16 18.6665V22.6665C16 23.3998 16.6 23.9998 17.3333 23.9998H21.3333C22.0667 23.9998 22.6667 23.3998 22.6667 22.6665V18.6665C22.6667 17.9332 22.0667 17.3332 21.3333 17.3332ZM21.3333 3.99984V5.33317H10.6667V3.99984C10.6667 3.2665 10.0667 2.6665 9.33333 2.6665C8.6 2.6665 8 3.2665 8 3.99984V5.33317H6.66667C5.18667 5.33317 4.01333 6.53317 4.01333 7.99984L4 26.6665C4 28.1332 5.18667 29.3332 6.66667 29.3332H25.3333C26.8 29.3332 28 28.1332 28 26.6665V7.99984C28 6.53317 26.8 5.33317 25.3333 5.33317H24V3.99984C24 3.2665 23.4 2.6665 22.6667 2.6665C21.9333 2.6665 21.3333 3.2665 21.3333 3.99984ZM24 26.6665H8C7.26667 26.6665 6.66667 26.0665 6.66667 25.3332V11.9998H25.3333V25.3332C25.3333 26.0665 24.7333 26.6665 24 26.6665Z" fill="#038251"/>
</g>
<defs>
<clipPath id="clip0_51_16">
<rect width="32" height="32" fill="white"/>
</clipPath>
</defs>
</svg>
