<svg width="32" height="32" viewBox="0 0 32 32" fill="none" xmlns="http://www.w3.org/2000/svg">
<path d="M9.86617 17.516C9.692 17.7779 9.5993 18.0855 9.59977 18.4V19.0424L7.58137 19.0432C7.51445 19.0433 7.44847 19.0589 7.38863 19.0888C7.32879 19.1188 7.27675 19.1623 7.23663 19.2158C7.1965 19.2694 7.16939 19.3316 7.15744 19.3974C7.14549 19.4632 7.14903 19.531 7.16777 19.5952L8.32617 22.9952L8.33257 23.0136C8.38857 23.1944 8.55497 23.3168 8.74377 23.3168H9.59977V24.8432L8.74377 24.844C8.3279 24.8453 7.92248 24.7137 7.58672 24.4683C7.25095 24.2229 7.00241 23.8766 6.87737 23.48L5.71737 20.0776L5.71417 20.068L5.71097 20.0584C5.61916 19.7651 5.5977 19.4543 5.64832 19.1512C5.69893 18.8481 5.82021 18.5611 6.00233 18.3135C6.18445 18.066 6.4223 17.8648 6.69663 17.7262C6.97095 17.5877 7.27404 17.5157 7.58137 17.516H9.86617ZM15.5998 4.172C16.6123 4.17327 17.583 4.57606 18.299 5.29202C19.0149 6.00799 19.4177 6.97868 19.419 7.9912C19.4177 9.00373 19.0149 9.97442 18.299 10.6904C17.583 11.4063 16.6123 11.8091 15.5998 11.8104C14.5872 11.8091 13.6166 11.4063 12.9006 10.6904C12.1846 9.97442 11.7818 9.00373 11.7806 7.9912C11.7816 6.97854 12.1843 6.00764 12.9003 5.29151C13.6163 4.57537 14.5871 4.17247 15.5998 4.1712V4.172ZM15.5998 5.6992C15.1522 5.69919 14.7144 5.83024 14.3404 6.07616C13.9664 6.32209 13.6726 6.67213 13.4953 7.08309C13.318 7.49405 13.2648 7.94794 13.3425 8.38875C13.4201 8.82956 13.6251 9.23799 13.9322 9.56364C14.2392 9.88928 14.6349 10.1179 15.0704 10.2213C15.5059 10.3246 15.9622 10.2982 16.3828 10.1453C16.8035 9.99235 17.1701 9.7196 17.4376 9.36069C17.705 9.00179 17.8615 8.57243 17.8878 8.1256L17.8918 7.9912C17.8912 7.40677 17.6676 6.8446 17.2666 6.4194C16.8657 5.99421 16.3176 5.73805 15.7342 5.7032L15.5998 5.6992Z" fill="#038251"/>
<path d="M22.475 18.8472C22.2724 18.8472 22.0781 18.7667 21.9348 18.6234C21.7915 18.4802 21.711 18.2858 21.711 18.0832C21.711 16.9432 21.3494 15.8776 20.6942 15.0832C20.0734 14.3304 19.2622 13.916 18.4062 13.916H12.7934C11.939 13.916 11.1262 14.3304 10.5054 15.0824C9.84943 15.8776 9.48943 16.9424 9.48943 18.0832C9.48943 18.2858 9.40893 18.4802 9.26566 18.6234C9.12238 18.7667 8.92805 18.8472 8.72543 18.8472C8.5228 18.8472 8.32847 18.7667 8.1852 18.6234C8.04192 18.4802 7.96143 18.2858 7.96143 18.0832C7.96143 16.5888 8.44623 15.1784 9.32703 14.1104C9.74725 13.5927 10.2696 13.1671 10.8614 12.86C11.4583 12.5502 12.1209 12.3883 12.7934 12.388H18.4062C19.079 12.388 19.7422 12.5504 20.3382 12.86C20.9166 13.156 21.4318 13.5768 21.8726 14.1112C22.7534 15.1784 23.239 16.5888 23.239 18.0832C23.239 18.2858 23.1585 18.4802 23.0153 18.6234C22.872 18.7667 22.6777 18.8472 22.475 18.8472Z" fill="#038251"/>
<path d="M15.5934 14.8048L14.8022 16.7968C14.781 16.8512 14.7761 16.9106 14.7882 16.9678C14.8003 17.0249 14.8288 17.0772 14.8702 17.1184L15.395 17.6432C15.511 17.76 15.699 17.7608 15.8166 17.6456L16.3366 17.1256C16.3778 17.0843 16.4058 17.0317 16.4172 16.9745C16.4286 16.9173 16.4228 16.858 16.4006 16.804L15.5926 14.8048H15.5934Z" fill="#038251"/>
<path d="M16.0624 15.36H15.1376C15.0792 15.3598 15.0225 15.3401 14.9766 15.304C14.9307 15.2679 14.8981 15.2175 14.884 15.1608L14.7584 14.66C14.7487 14.6213 14.7479 14.5808 14.7562 14.5417C14.7645 14.5026 14.7816 14.4659 14.8062 14.4344C14.8308 14.4029 14.8623 14.3775 14.8982 14.36C14.9342 14.3425 14.9736 14.3335 15.0136 14.3336H16.1888C16.2287 14.3336 16.2681 14.3427 16.3039 14.3603C16.3398 14.3778 16.3712 14.4032 16.3957 14.4347C16.4202 14.4662 16.4373 14.5028 16.4455 14.5419C16.4537 14.5809 16.4529 14.6213 16.4432 14.66L16.3184 15.1608C16.3042 15.2179 16.2713 15.2686 16.2249 15.3047C16.1785 15.3408 16.1212 15.3603 16.0624 15.36Z" fill="#038251"/>
<path d="M23.796 18.4128H13.1456C12.3467 18.4128 11.5805 18.7301 11.0155 19.295C10.4505 19.8598 10.133 20.6259 10.1328 21.4248V21.9232L10.1376 22.0816C10.1795 22.8515 10.5145 23.5762 11.0739 24.1068C11.6333 24.6375 12.3746 24.9339 13.1456 24.9352H22.1456C22.9444 24.935 23.7104 24.6176 24.2752 24.0528C24.84 23.488 25.1574 22.722 25.1576 21.9232V19.7744C25.1576 19.0224 24.548 18.4128 23.796 18.4128ZM13.1456 20.0128L23.5568 20.012V21.9232C23.5568 22.7032 22.9248 23.3352 22.1448 23.3352H13.1448C12.3976 23.3352 11.78 22.7512 11.736 22.0096L11.7328 21.8992V21.4248C11.7328 20.6448 12.3648 20.0128 13.1456 20.0128Z" fill="#038251"/>
</svg>
