<svg width="32" height="32" viewBox="0 0 32 32" fill="none" xmlns="http://www.w3.org/2000/svg">
<g clip-path="url(#clip0_51_77)">
<path fill-rule="evenodd" clip-rule="evenodd" d="M0 29.4623C0 18.3992 9.72135 24.5239 10.4609 17.7445C10.5417 17.0059 8.92188 15.0557 8.54948 13.7071C7.76823 12.3445 7.46875 10.1817 8.33854 8.74355C8.6849 8.16997 8.53906 6.66189 8.53906 5.87567C8.53906 -1.95856 21.3125 -1.95856 21.3125 5.87567C21.3125 6.86614 21.099 8.11402 21.6016 8.88625C22.4401 10.1901 22.0052 12.4984 21.2995 13.7099C20.849 15.1228 19.125 16.9415 19.2708 17.7445C19.3761 18.4258 19.6275 19.0715 20.0052 19.6303L19.8802 19.7618C19.6759 19.9806 19.5131 20.2401 19.401 20.5257L19.3698 20.6124C19.2768 20.8742 19.2292 21.152 19.2292 21.4322C19.2304 21.7478 19.2906 22.0598 19.4062 22.3499L19.4766 22.5094C19.3651 22.5381 19.2555 22.5745 19.1484 22.6185C18.6041 22.8639 18.1711 23.3291 17.9427 23.914L17.8906 24.079C17.8183 24.3147 17.7813 24.5612 17.7813 24.8093V26.3006C17.7808 26.6101 17.8383 26.9165 17.9505 27.2015L18.013 27.347C18.1154 27.5658 18.248 27.7668 18.4063 27.943L18.4427 27.9822C18.6405 28.1941 18.8737 28.364 19.1302 28.483L19.3047 28.5501C19.247 28.646 19.1974 28.7471 19.1562 28.8523C19.0776 29.0432 19.0233 29.2446 18.9948 29.4511L0 29.4623ZM29.9896 20.9845C29.937 20.9268 29.8742 20.8809 29.8049 20.8497C29.7356 20.8184 29.6611 20.8025 29.5859 20.8027C29.5107 20.8018 29.436 20.8175 29.3666 20.8488C29.2972 20.8801 29.2345 20.9262 29.1823 20.9845L28.5677 21.656C28.401 21.5414 28.2269 21.4395 28.0469 21.3511C27.8653 21.2626 27.6792 21.185 27.4896 21.1188V20.106C27.4903 20.0255 27.4761 19.9457 27.4478 19.8713C27.4196 19.7968 27.3778 19.729 27.325 19.672C27.2722 19.615 27.2094 19.5699 27.1401 19.5392C27.0709 19.5085 26.9967 19.4928 26.9219 19.4932H25.737C25.6628 19.4928 25.5892 19.5084 25.5208 19.5392C25.4523 19.5699 25.3903 19.6152 25.3385 19.6723C25.2839 19.7281 25.2407 19.7954 25.2115 19.87C25.1824 19.9447 25.168 20.025 25.1693 20.106V21.0321C24.9744 21.0811 24.783 21.1447 24.5964 21.2223C24.4172 21.2968 24.2432 21.3847 24.0755 21.4854L23.3854 20.7635C23.3356 20.705 23.2748 20.6585 23.207 20.6271C23.1392 20.5958 23.066 20.5803 22.9922 20.5816C22.917 20.5811 22.8424 20.5969 22.7731 20.6282C22.7037 20.6595 22.6409 20.7055 22.5885 20.7635L21.7604 21.656C21.7061 21.7122 21.6628 21.7795 21.6333 21.854C21.6038 21.9285 21.5885 22.0087 21.5885 22.0897C21.5885 22.1707 21.6038 22.2509 21.6333 22.3254C21.6628 22.3999 21.7061 22.4673 21.7604 22.5234L22.3724 23.1837C22.2659 23.3625 22.1719 23.5495 22.0911 23.7433C22.0093 23.9386 21.9371 24.1385 21.875 24.342H20.9297C20.8548 24.3409 20.7806 24.3559 20.7112 24.3862C20.6418 24.4164 20.5788 24.4613 20.5259 24.5182C20.473 24.575 20.4312 24.6427 20.4031 24.7172C20.3749 24.7918 20.3609 24.8716 20.362 24.952V26.2251C20.3633 26.3861 20.4237 26.5401 20.5299 26.6537C20.6362 26.7674 20.7798 26.8315 20.9297 26.8322H21.7943C21.8383 27.0417 21.8966 27.2475 21.9688 27.4478C22.0403 27.6465 22.122 27.8407 22.2135 28.0297L21.5417 28.7488C21.4872 28.8023 21.4439 28.8677 21.4148 28.9405C21.3856 29.0133 21.3711 29.092 21.3724 29.1713C21.3716 29.2522 21.3862 29.3323 21.4153 29.4069C21.4444 29.4815 21.4874 29.5489 21.5417 29.605L22.3724 30.4975C22.4809 30.609 22.6259 30.6703 22.776 30.6682C22.9255 30.6705 23.0697 30.6091 23.1771 30.4975L23.7917 29.826C23.9584 29.9407 24.1324 30.0426 24.3125 30.131C24.4934 30.219 24.6786 30.2965 24.8672 30.3632V31.3761C24.8672 31.5386 24.9273 31.6944 25.0342 31.8093C25.1412 31.9242 25.2862 31.9888 25.4375 31.9888H26.6198C26.694 31.9893 26.7675 31.9736 26.836 31.9429C26.9044 31.9121 26.9664 31.8668 27.0182 31.8097C27.0728 31.754 27.1161 31.6866 27.1452 31.612C27.1744 31.5373 27.1888 31.457 27.1875 31.3761V30.4499C27.3824 30.401 27.5738 30.3374 27.7604 30.2597C27.9452 30.1823 28.126 30.0945 28.3021 29.9967L28.9714 30.7185C29.0215 30.7774 29.0827 30.8241 29.151 30.8555C29.2192 30.8868 29.293 30.9022 29.3672 30.9004C29.4423 30.903 29.517 30.888 29.5862 30.8567C29.6555 30.8253 29.7176 30.7781 29.7682 30.7185L30.6068 29.826C30.7118 29.71 30.7698 29.5541 30.7682 29.3923C30.7696 29.3121 30.756 29.2324 30.7283 29.158C30.7006 29.0835 30.6592 29.0157 30.6068 28.9586L29.9844 28.2983C30.0909 28.1195 30.1849 27.9325 30.2656 27.7387C30.3484 27.5435 30.4214 27.3436 30.4844 27.14H31.4271C31.5019 27.1411 31.5762 27.1261 31.6456 27.0959C31.7149 27.0656 31.7779 27.0207 31.8309 26.9639C31.8838 26.907 31.9256 26.8393 31.9537 26.7648C31.9819 26.6903 31.9958 26.6104 31.9948 26.53V25.2682C31.9951 25.1891 31.9807 25.1108 31.9525 25.0378C31.9244 24.9648 31.883 24.8985 31.8307 24.8429C31.779 24.7839 31.7164 24.7373 31.6469 24.7059C31.5773 24.6746 31.5025 24.6593 31.4271 24.661H30.5625C30.5155 24.4542 30.4572 24.2505 30.388 24.0511C30.3185 23.8533 30.2367 23.6607 30.1432 23.4747L30.8125 22.7444C30.8678 22.6909 30.9117 22.6252 30.9414 22.5518C30.971 22.4784 30.9857 22.3991 30.9844 22.3191C30.9846 22.2385 30.9695 22.1587 30.94 22.0846C30.9104 22.0105 30.867 21.9437 30.8125 21.8883L29.9896 20.9845ZM26.1797 23.2453C26.4908 23.2435 26.799 23.3092 27.0859 23.4383C27.643 23.689 28.0856 24.1655 28.3177 24.7645C28.4373 25.0721 28.4989 25.4021 28.4989 25.7354C28.4989 26.0687 28.4373 26.3988 28.3177 26.7063C28.0856 27.3053 27.643 27.7819 27.0859 28.0325C26.7971 28.1618 26.4874 28.2284 26.1745 28.2284C25.8616 28.2284 25.5518 28.1618 25.263 28.0325C24.706 27.7819 24.2634 27.3053 24.0313 26.7063C23.9116 26.3988 23.85 26.0687 23.85 25.7354C23.85 25.4021 23.9116 25.0721 24.0313 24.7645C24.2634 24.1655 24.706 23.689 25.263 23.4383C25.5491 23.3095 25.8565 23.2438 26.1667 23.2453H26.1797Z" fill="#038251"/>
</g>
<defs>
<clipPath id="clip0_51_77">
<rect width="32" height="32" fill="white"/>
</clipPath>
</defs>
</svg>
